{"title":"Contact(1997)MPEG-4[DaScubaDude]","uid":14899343,"size":1687535354,"categoryP":"video","categoryS":"movies","magnet":"?xt=urn:btih:5e29fd8a9110a0142288542622096100992b590b&amp;dn=Contact%281997%29MPEG-4%5BDaScubaDude%5D&amp;tr=udp%3A%2F%2Ftracker.leechers-paradise.org%3A6969&amp;tr=udp%3A%2F%2Fzer0day.ch%3A1337&amp;tr=udp%3A%2F%2Fopen.demonii.com%3A1337&amp;tr=udp%3A%2F%2Ftracker.coppersurfer.tk%3A6969&amp;tr=udp%3A%2F%2Fexodus.desync.com%3A6969","seeders":0,"leechers":0,"uploader":"dascuba","files":1,"time":1465803471,"description":"Contact (1997)\r\nPG | 2h 30min | Drama, Mystery, Sci-Fi | 11 July 1997 (USA)\r\nDr. Ellie Arroway, after years of searching, finds conclusive radio proof of intelligent aliens, who send plans for a mysterious machine.\r\nDirector: Robert Zemeckis\r\nWriters: James V. Hart (screenplay), Michael Goldenberg (screenplay) | \r\nStars: Jodie Foster, Matthew McConaughey, Tom Skerritt |\r\n\r\nGeneral\r\nComplete name                            : ContactOut_Title1.mp4\r\nFormat                                   : MPEG-4\r\nFormat profile                           : Base Media\r\nCodec ID                                 : isom (isom/iso2/avc1/mp41)\r\nFile size                                : 1.57 GiB\r\nDuration                                 : 2h 29mn\r\nOverall bit rate mode                    : Variable\r\nOverall bit rate                         : 1 504 Kbps\r\nMovie name                               : DVD\r\nGenre                                    : Science_Fiction\r\nWriting application                      : Lavf54.6.100\r\n\r\nVideo\r\nID                                       : 1\r\nFormat                                   : AVC\r\nFormat/Info                              : Advanced Video Codec\r\nFormat profile                           :   \r\nFormat settings, CABAC                   : No\r\nFormat settings, ReFrames                : 6 frames\r\nFormat settings, GOP                     : M=1, N=60\r\nCodec ID                                 : avc1\r\nCodec ID/Info                            : Advanced Video Coding\r\nDuration                                 : 2h 29mn\r\nBit rate                                 : 1 199 Kbps\r\nWidth                                    : 720 pixels\r\nHeight                                   : 404 pixels\r\nDisplay aspect ratio                     : 16:9\r\nFrame rate mode                          : Constant\r\nFrame rate                               : 29.970 (30000/1001) fps\r\nColor space                              : YUV\r\nChroma subsampling                       : 4:2:0\r\nBit depth                                : 8 bits\r\nScan type                                : Progressive\r\nBits/(Pixel*Frame)                       : 0.138\r\nStream size                              : 1.25 GiB (80%)\r\n\r\nAudio\r\nID                                       : 2\r\nFormat                                   : AAC\r\nFormat/Info                              : Advanced Audio Codec\r\nFormat profile                           : LC\r\nCodec ID                                 : 40\r\nDuration                                 : 2h 29mn\r\nBit rate mode                            : Variable\r\nBit rate                                 : 299 Kbps\r\nMaximum bit rate                         : 435 Kbps\r\nChannel(s)                               : 2 channels\r\nChannel(s)_Original                      : 6 channels\r\nChannel positions                        : Front: L C R, Side: L R, LFE\r\nSampling rate                            : 44.1 KHz\r\nFrame rate                               : 43.066 fps (1024 spf)\r\nCompression mode                         : Lossy\r\nStream size                              : 320 MiB (20%)\r\nDefault                                  : Yes\r\nAlternate group                          : 1","torrent":{"xt":"urn:btih:5e29fd8a9110a0142288542622096100992b590b","amp;dn":"Contact%281997%29MPEG-4%5BDaScubaDude%5D","amp;tr":["udp%3A%2F%2Ftracker.leechers-paradise.org%3A6969","udp%3A%2F%2Fzer0day.ch%3A1337","udp%3A%2F%2Fopen.demonii.com%3A1337","udp%3A%2F%2Ftracker.coppersurfer.tk%3A6969","udp%3A%2F%2Fexodus.desync.com%3A6969"],"infoHash":"5e29fd8a9110a0142288542622096100992b590b","infoHashBuffer":{"type":"Buffer","data":[94,41,253,138,145,16,160,20,34,136,84,38,34,9,97,0,153,43,89,11]},"announce":[],"urlList":[]}}